<svg width="32" height="31" viewBox="0 0 32 31" fill="none" xmlns="http://www.w3.org/2000/svg">
<path fill-rule="evenodd" clip-rule="evenodd" d="M24 6.84771C24 11.5421 20.1944 15.3477 15.5 15.3477C10.8056 15.3477 7 11.5421 7 6.84771C7 4.39701 8.03714 2.18854 9.69645 0.637288C3.99409 3.08401 0 8.74942 0 15.3477C0 21.946 3.9941 27.6114 9.69646 30.0581C8.03715 28.5069 7 26.2984 7 23.8477C7 19.1533 10.8056 15.3477 15.5 15.3477C20.1944 15.3477 24 19.1533 24 23.8477C24 26.6569 22.6372 29.1478 20.5367 30.6954C27.1637 28.7396 32 22.6084 32 15.3477C32 8.08697 27.1637 1.95583 20.5367 0C22.6372 1.54759 24 4.0385 24 6.84771Z" fill="#D90429"/>
</svg>
