<svg width="16" height="16" viewBox="0 0 16 16" fill="none" xmlns="http://www.w3.org/2000/svg">
<path d="M15.3333 1.99999C14.6949 2.45031 13.988 2.79473 13.24 3.01999C12.8385 2.55833 12.3048 2.23112 11.7113 2.08261C11.1178 1.9341 10.493 1.97145 9.92135 2.18963C9.34974 2.4078 8.85892 2.79626 8.51528 3.30247C8.17164 3.80868 7.99176 4.40821 7.99996 5.01999V5.68666C6.82838 5.71704 5.66748 5.4572 4.62063 4.93029C3.57379 4.40338 2.6735 3.62575 1.99996 2.66666C1.99996 2.66666 -0.666707 8.66666 5.33329 11.3333C3.96031 12.2653 2.32473 12.7326 0.666626 12.6667C6.66663 16 14 12.6667 14 4.99999C13.9993 4.81429 13.9815 4.62905 13.9466 4.44666C14.627 3.77565 15.1072 2.92847 15.3333 1.99999V1.99999Z" stroke="#EF233C" stroke-linecap="round" stroke-linejoin="round"/>
</svg>
